Coordinates
version=1
nRows=8
nColumns=40
inDegrees=yes
endheader
time	pelvis_tilt	pelvis_list	pelvis_rotation	pelvis_tx	pelvis_ty	pelvis_tz	hip_flexion_r	hip_adduction_r	hip_rotation_r	knee_angle_r	knee_angle_r_beta	ankle_angle_r	subtalar_angle_r	mtp_angle_r	hip_flexion_l	hip_adduction_l	hip_rotation_l	knee_angle_l	knee_angle_l_beta	ankle_angle_l	subtalar_angle_l	mtp_angle_l	lumbar_extension	lumbar_bending	lumbar_rotation	arm_flex_r	arm_add_r	arm_rot_r	elbow_flex_r	pro_sup_r	wrist_flex_r	wrist_dev_r	arm_flex_l	arm_add_l	arm_rot_l	elbow_flex_l	pro_sup_l	wrist_flex_l	wrist_dev_l
1760624944.80200005	      0.26043604	     -0.82893638	      2.63104862	     -0.04165750	      0.96317958	      0.01269534	     80.00000000	     -7.00000000	      0.00000000	     80.00000000	      1.39626340	      0.00000000	      0.00000000	      0.00000000	     80.00000000	     -7.00000000	      0.00000000	     80.00000000	      1.39626340	      0.00000000	      0.00000000	      0.00000000	      3.13269059	     -0.56503794	      4.67407943	     12.12593976	    -12.32670828	     12.62494683	     61.43817232	    143.66114495	    -29.30149711	     35.00000010	     10.36704262	    -10.79088524	     -8.14771638	     63.73770219	    119.38128381	      7.66747373	      2.40257549
1760624944.83599997	      0.25395991	     -0.86124346	      2.62614439	     -0.04126510	      0.96561962	      0.01044246	     80.00000000	     -7.00000000	      0.00000000	     80.00000000	      1.39626340	      0.00000000	      0.00000000	      0.00000000	     80.00000000	     -7.00000000	      0.00000000	     80.00000000	      1.39626340	      0.00000000	      0.00000000	      0.00000000	      3.10075722	     -1.03091044	      4.83866458	     13.38436384	    -12.44446923	     12.89982057	     54.52918763	    148.16223157	    -27.73397445	     35.00000010	     10.49435554	    -11.04766043	     -7.89582397	     63.71457958	    119.56022613	      7.63775442	      2.43602024
1760624944.86899996	      0.25032561	     -0.87849930	      2.62708730	     -0.04037214	      0.96696420	      0.00946582	     80.00000000	     -7.00000000	      0.00000000	     80.00000000	      1.39626340	      0.00000000	      0.00000000	      0.00000000	     80.00000000	     -7.00000000	      0.00000000	     80.00000000	      1.39626340	      0.00000000	      0.00000000	      0.00000000	      3.05919547	     -1.28379916	      5.00238515	     14.13523092	    -12.61110307	     12.99453981	     51.06371313	    149.22998736	    -27.05086629	     35.00000010	     10.66386897	    -11.11707509	     -7.69792261	     63.66537798	    119.67629480	      7.65306835	      2.46114889
1760624944.90300012	      0.25366731	     -0.88810983	      2.63372350	     -0.03960117	      0.96759974	      0.00890859	     80.00000000	     -7.00000000	      0.00000000	     80.00000000	      1.39626340	      0.00000000	      0.00000000	      0.00000000	     80.00000000	     -7.00000000	      0.00000000	     80.00000000	      1.39626340	      0.00000000	      0.00000000	      0.00000000	      2.95086847	     -1.46800693	      5.12360374	     14.75613809	    -12.67076343	     13.03943530	     48.03803407	    150.30646044	    -26.74263714	     35.00000010	     10.90479501	    -11.13043404	     -7.55355056	     63.60729068	    119.75959404	      7.65605000	      2.48128531
1760624944.93600011	      0.24158430	     -0.90058302	      2.65939566	     -0.03958885	      0.96805201	      0.00745815	     80.00000000	     -7.00000000	      0.00000000	     80.00000000	      1.39626340	      0.00000000	      0.00000000	      0.00000000	     80.00000000	     -7.00000000	      0.00000000	     80.00000000	      1.39626340	      0.00000000	      0.00000000	      0.00000000	      2.86143657	     -1.53460718	      5.20669677	     15.23871113	    -12.67388356	     13.00478177	     45.21673665	    151.39842655	    -26.50862913	     35.00000010	     10.94830483	    -11.09275855	     -7.51167109	     63.69816254	    119.72926203	      7.77386507	      2.50526968
1760624944.96900010	      0.22584653	     -0.89829862	      2.66937933	     -0.03961043	      0.96804649	      0.00661165	     80.00000000	     -7.00000000	      0.00000000	     80.00000000	      1.39626340	      0.00000000	      0.00000000	      0.00000000	     80.00000000	     -7.00000000	      0.00000000	     80.00000000	      1.39626340	      0.00000000	      0.00000000	      0.00000000	      2.78459181	     -1.53458119	      5.28376462	     15.39335963	    -12.53128996	     12.99130885	     43.82356816	    151.51079573	    -26.22332796	     35.00000010	     11.01825929	    -11.01192212	     -7.49647573	     63.72691412	    119.78251864	      7.90550602	      2.52488831
1760624945.00300002	      0.23044048	     -0.89304980	      2.67962782	     -0.04351160	      0.96836264	      0.00591018	     80.00000000	     -7.00000000	      0.00000000	     80.00000000	      1.39626340	      0.00000000	      0.00000000	      0.00000000	     80.00000000	     -7.00000000	      0.00000000	     80.00000000	      1.39626340	      0.00000000	      0.00000000	      0.00000000	      2.76818466	     -1.45072159	      5.29662561	     15.15458207	    -12.42671350	     13.36877529	     42.20943838	    151.39104540	    -26.85267532	     35.00000010	     10.77099935	    -10.94041486	     -7.56979187	     63.94273005	    119.82969355	      7.94030359	      2.53449382
1760624945.03600001	      0.24158805	     -0.89131560	      2.68665736	     -0.04504565	      0.96846811	      0.00589373	     80.00000000	     -7.00000000	      0.00000000	     80.00000000	      1.39626340	      0.00000000	      0.00000000	      0.00000000	     80.00000000	     -7.00000000	      0.00000000	     80.00000000	      1.39626340	      0.00000000	      0.00000000	      0.00000000	      2.64240562	     -1.41301054	      5.32537491	     15.30393475	    -12.35041320	     13.66525611	     41.26997694	    151.02397755	    -26.04615651	     35.00000010	     10.81285790	    -10.95517403	     -7.58319743	     63.98446530	    119.83559036	      7.89463167	      2.52663787
